<!-- Generated by IcoMoon.io -->
<svg version="1.1" xmlns="http://www.w3.org/2000/svg" width="35" height="32" viewBox="0 0 35 32">
<title>Main</title>
<path fill="#4f46e5" d="M14.918 29.267c0.207-0.534 0.306-1.105 0.291-1.677 0.032-1.588 0.456-3.143 1.235-4.527 0.777-1.382 1.886-2.548 3.226-3.395 0.496-0.266 0.933-0.63 1.284-1.070s0.61-0.946 0.76-1.489c0.15-0.543 0.188-1.11 0.113-1.668s-0.264-1.095-0.553-1.578c-0.386-0.645-0.942-1.174-1.604-1.526-0.38-0.263-0.745-0.547-1.092-0.851l-0.871-0.853c-1.597-1.679-2.492-3.904-2.503-6.221 0.017-0.573-0.082-1.144-0.29-1.678s-0.52-1.022-0.919-1.433c-0.397-0.411-0.873-0.738-1.399-0.961s-1.092-0.338-1.664-0.338c-0.571 0.001-1.137 0.116-1.663 0.339s-1.002 0.55-1.4 0.96c-0.398 0.412-0.71 0.9-0.918 1.435s-0.306 1.105-0.291 1.678c0.009 0.744 0.214 1.472 0.594 2.112 0.379 0.639 0.919 1.166 1.567 1.529 2.623 1.66 4.448 4.833 4.448 7.954-0.007 2.297-0.885 4.505-2.458 6.179l-1.984 1.762c-0.647 0.362-1.188 0.889-1.568 1.529-0.381 0.639-0.585 1.369-0.594 2.113-0.016 0.573 0.082 1.144 0.29 1.678s0.52 1.022 0.919 1.434c0.397 0.411 0.873 0.738 1.4 0.961s1.092 0.338 1.664 0.338c0.572-0.001 1.137-0.116 1.663-0.339s1.002-0.55 1.4-0.96c0.398-0.412 0.71-0.9 0.918-1.434z"></path>
<path fill="#4f46e5" d="M20.711 6.784c-0.47-0.706-0.721-1.537-0.721-2.386 0.001-1.137 0.451-2.228 1.253-3.035 0.697-0.702 1.617-1.139 2.602-1.236s1.972 0.151 2.794 0.702c0.704 0.472 1.252 1.143 1.574 1.926s0.407 1.647 0.242 2.479-0.572 1.597-1.169 2.199c-0.596 0.6-1.357 1.010-2.187 1.176s-1.69 0.081-2.471-0.244c-0.782-0.325-1.449-0.876-1.918-1.581z"></path>
<path fill="#4f46e5" d="M21.89 24.019c0.703-0.471 1.53-0.723 2.374-0.723v-0.002c0.562 0.001 1.117 0.112 1.636 0.328s0.989 0.532 1.385 0.93c0.7 0.704 1.135 1.628 1.232 2.615s-0.15 1.979-0.699 2.805c-0.469 0.706-1.137 1.257-1.919 1.583-0.781 0.325-1.641 0.41-2.471 0.244s-1.591-0.575-2.187-1.176c-0.598-0.602-1.005-1.367-1.17-2.2s-0.081-1.695 0.243-2.48c0.323-0.784 0.871-1.454 1.574-1.926z"></path>
<path fill="#4f46e5" d="M34.48 13.609c0.469 0.706 0.72 1.535 0.72 2.384-0.001 1.138-0.451 2.229-1.253 3.036-0.396 0.398-0.867 0.714-1.385 0.93s-1.074 0.328-1.636 0.328c-0.846 0-1.672-0.252-2.374-0.723-0.704-0.472-1.252-1.143-1.574-1.926-0.323-0.785-0.408-1.647-0.243-2.48s0.572-1.598 1.17-2.2c0.596-0.601 1.357-1.010 2.187-1.176s1.69-0.081 2.471 0.245c0.782 0.326 1.449 0.876 1.918 1.582z"></path>
<path fill="#4f46e5" d="M1.9 12.423c0.703-0.471 1.529-0.723 2.374-0.723 0.561 0.001 1.117 0.113 1.635 0.329s0.989 0.532 1.384 0.931c0.699 0.704 1.134 1.627 1.231 2.614s-0.149 1.978-0.698 2.804c-0.469 0.706-1.136 1.256-1.918 1.582-0.781 0.324-1.641 0.408-2.47 0.242s-1.59-0.574-2.187-1.173c-0.598-0.602-1.004-1.367-1.169-2.199s-0.081-1.694 0.242-2.479c0.323-0.784 0.871-1.455 1.574-1.927z"></path>
</svg>
